# This file uses centimeters as units for non-parametric coordinates.

mtllib wall_3d.mtl
g default
v 8.711528 0.000000 -6.000000
v 9.000000 0.000000 -6.000000
v 8.711528 5.000000 -6.000000
v 9.000000 5.000000 -6.000000
v 8.711528 5.000000 -12.000000
v 9.000000 5.000000 -12.000000
v 8.711528 0.000000 -12.000000
v 9.000000 0.000000 -12.000000
vt 0.930070 0.108774
vt 0.971821 0.108774
vt 0.971821 0.935582
vt 0.930070 0.935582
vt 0.930070 0.935582
vt 0.971821 0.935582
vt 0.971821 0.108774
vt 0.930070 0.108774
vt 0.004756 0.086074
vt 0.911462 0.086074
vt 0.911462 0.992780
vt 0.004756 0.992780
vt 0.911462 0.086074
vt 0.004756 0.086074
vt 0.004756 0.992780
vt 0.911462 0.992780
vn 0.000000 0.000000 1.000000
vn 0.000000 0.000000 1.000000
vn 0.000000 0.000000 1.000000
vn 0.000000 0.000000 1.000000
vn 0.000000 0.000000 -1.000000
vn 0.000000 0.000000 -1.000000
vn 0.000000 0.000000 -1.000000
vn 0.000000 0.000000 -1.000000
vn 1.000000 0.000000 0.000000
vn 1.000000 0.000000 0.000000
vn 1.000000 0.000000 0.000000
vn 1.000000 0.000000 0.000000
vn -1.000000 0.000000 0.000000
vn -1.000000 0.000000 0.000000
vn -1.000000 0.000000 0.000000
vn -1.000000 0.000000 0.000000
s off
g wall_02_2sided
usemtl initialShadingGroup
f 1/1/1 2/2/2 4/3/3 3/4/4
f 5/5/5 6/6/6 8/7/7 7/8/8
f 2/9/9 8/10/10 6/11/11 4/12/12
f 7/13/13 1/14/14 3/15/15 5/16/16
