# This file uses centimeters as units for non-parametric coordinates.

mtllib Brick6.mtl
g default
v 2.497927 0.320626 3.672960
v 4.162303 0.320626 3.672960
v 2.497927 1.579482 3.672960
v 4.162303 1.579482 3.672960
v 2.497927 1.579482 0.146268
v 4.162303 1.579482 0.146268
v 2.497927 0.320626 0.146268
v 4.162303 0.320626 0.146268
vt 0.661546 0.336004
vt 0.661546 0.664090
vt 0.333460 0.330125
vt 0.333460 0.002039
vt 0.333460 0.336004
vt 0.661546 0.002039
vt 0.661546 0.330125
vt 0.333460 0.664090
vt 0.329407 0.664042
vt 0.001320 0.664042
vt 0.329406 0.998006
vt 0.001320 0.998006
vt 0.329407 0.330078
vt 0.001320 0.330078
vt 0.661546 0.998008
vt 0.333460 0.998008
vt 0.001320 0.001992
vt 0.329407 0.001992
vt 0.001320 0.669920
vt 0.329406 0.669920
vt 0.001320 0.335956
vt 0.329407 0.335956
vt 0.333460 0.669922
vt 0.661546 0.669922
vn 1.000000 0.000000 0.000000
vn 1.000000 0.000000 0.000000
vn 1.000000 0.000000 0.000000
vn 1.000000 0.000000 0.000000
vn -1.000000 0.000000 0.000000
vn -1.000000 0.000000 0.000000
vn -1.000000 0.000000 0.000000
vn -1.000000 0.000000 0.000000
vn 0.000000 -1.000000 0.000000
vn 0.000000 -1.000000 0.000000
vn 0.000000 -1.000000 0.000000
vn 0.000000 -1.000000 0.000000
vn 0.000000 1.000000 0.000000
vn 0.000000 1.000000 0.000000
vn 0.000000 1.000000 0.000000
vn 0.000000 1.000000 0.000000
vn 0.000000 0.000000 1.000000
vn 0.000000 0.000000 1.000000
vn 0.000000 0.000000 1.000000
vn 0.000000 0.000000 1.000000
vn 0.000000 0.000000 -1.000000
vn 0.000000 0.000000 -1.000000
vn 0.000000 0.000000 -1.000000
vn 0.000000 0.000000 -1.000000
s off
g brick_5:pCube9
usemtl initialShadingGroup
f 6/11/1 4/12/2 2/19/3 8/20/4
f 3/15/5 5/16/6 7/23/7 1/24/8
f 1/1/9 7/2/10 8/8/11 2/5/12
f 5/3/13 3/4/14 4/6/15 6/7/16
f 4/13/17 3/14/18 1/17/19 2/18/20
f 5/9/21 6/10/22 8/21/23 7/22/24
