# This file uses centimeters as units for non-parametric coordinates.

mtllib wall_door.mtl
g default
v -0.000000 0.000000 -15.000000
v 0.000000 0.000000 -21.000000
v -0.000000 5.000000 -15.000000
v 0.000000 5.000000 -21.000000
v 0.000000 0.000000 -17.027533
v 0.000000 5.000000 -17.027533
v 0.000000 0.000000 -19.000002
v 0.000000 5.000000 -19.000002
v -0.000000 2.744470 -15.000000
v 0.000000 2.744470 -17.027533
v 0.000000 2.744470 -19.000002
v 0.000000 2.744470 -21.000000
v -0.119268 2.744470 -17.027533
v -0.119268 2.744470 -19.000002
v -0.119268 0.000000 -17.027533
v -0.119268 0.000000 -19.000002
vt 0.003611 0.622210
vt 0.283907 0.622210
vt 0.283907 0.996389
vt 0.003611 0.996389
vt 0.890530 0.787505
vt 0.556592 0.622210
vt 0.890530 0.069572
vt 0.556592 0.996389
vt 0.833082 0.622210
vt 0.863510 0.069572
vt 0.863510 0.787505
vt 0.833082 0.996389
vt 0.888506 0.156805
vt 0.888506 0.636203
vt 0.870463 0.636203
vt 0.870463 0.156805
vt 0.003611 0.166918
vt 0.283907 0.166918
vt 0.556592 0.166918
vt 0.833082 0.166918
vt 0.553379 0.608185
vt 0.294255 0.608185
vt 0.294255 0.253959
vt 0.553379 0.253959
vt 0.981377 0.954972
vt 0.981377 0.017168
vt 0.944049 0.017168
vt 0.944049 0.954972
vt 0.981377 0.017168
vt 0.981377 0.954972
vt 0.944049 0.954972
vt 0.944049 0.017168
vn 1.000000 0.000000 0.000000
vn 1.000000 0.000000 0.000000
vn 1.000000 0.000000 0.000000
vn 1.000000 0.000000 0.000000
vn 1.000000 0.000000 0.000000
vn 1.000000 0.000000 0.000000
vn 1.000000 0.000000 0.000000
vn 1.000000 0.000000 0.000000
vn 1.000000 0.000000 0.000000
vn 1.000000 0.000000 0.000000
vn 1.000000 0.000000 0.000000
vn 1.000000 0.000000 0.000000
vn 1.000000 0.000000 0.000000
vn 1.000000 0.000000 0.000000
vn 1.000000 0.000000 0.000000
vn 1.000000 0.000000 0.000000
vn 0.000000 -1.000000 0.000000
vn 0.000000 -1.000000 0.000000
vn 0.000000 -1.000000 0.000000
vn 0.000000 -1.000000 0.000000
vn 0.000000 0.000000 -1.000000
vn 0.000000 0.000000 -1.000000
vn 0.000000 0.000000 -1.000000
vn 0.000000 0.000000 -1.000000
vn 0.000000 1.000000 0.000000
vn 0.000000 1.000000 0.000000
vn 0.000000 1.000000 0.000000
vn 0.000000 1.000000 0.000000
vn 0.000000 0.000000 1.000000
vn 0.000000 0.000000 1.000000
vn 0.000000 0.000000 1.000000
vn 0.000000 0.000000 1.000000
s 1
g door_Backface
usemtl initialShadingGroup
f 9/1/1 10/2/2 6/3/3 3/4/4
f 6/3/3 10/2/2 11/6/5 8/8/6
f 8/8/6 11/6/5 12/9/7 4/12/8
f 1/17/9 5/18/10 10/2/2 9/1/1
s off
f 14/21/11 13/22/12 15/23/13 16/24/14
s 1
f 12/9/7 11/6/5 7/19/15 2/20/16
s off
f 11/5/17 10/7/18 13/10/19 14/11/20
f 10/25/21 5/26/22 15/27/23 13/28/24
f 5/13/25 7/14/26 16/15/27 15/16/28
f 7/29/29 11/30/30 14/31/31 16/32/32
