# This file uses centimeters as units for non-parametric coordinates.

mtllib broken_wall_01.mtl
g default
v 8.711528 0.000000 0.974479
v 9.000000 0.000000 0.974479
v 8.711528 5.000000 0.974479
v 9.000000 5.000000 0.974479
v 8.711528 5.000000 -5.025521
v 9.000000 5.000000 -5.025521
v 8.711528 0.000000 -5.025521
v 9.000000 0.000000 -5.025521
v 8.711528 4.755316 0.953677
v 9.000000 4.755316 0.953677
v 9.000000 4.287265 -5.025521
v 8.711528 4.287265 -5.025521
v 8.711528 3.875164 0.412818
v 9.000000 3.875164 0.412818
v 9.000000 3.875164 -5.025521
v 8.711528 3.875164 -5.025521
v 8.711528 3.714709 0.392016
v 9.000000 3.714709 0.392016
v 9.000000 3.277862 -5.025521
v 8.711528 3.277862 -5.025521
v 8.711528 3.540359 0.808061
v 9.000000 3.540359 0.808061
v 9.000000 2.760274 -5.025521
v 8.711528 2.760274 -5.025521
v 8.711528 3.117935 0.548033
v 9.000000 3.117935 0.548033
v 9.000000 1.838597 -5.025521
v 8.711528 1.838597 -5.025521
v 8.711528 2.485142 0.652044
v 9.000000 2.485142 0.652044
v 9.000000 1.112193 -5.025521
v 8.711528 1.112193 -5.025521
v 9.000000 2.207003 -5.025521
v 9.000000 3.340726 0.818462
v 8.711528 3.340726 0.818462
v 8.711528 2.207003 -5.025521
v 8.711528 1.356303 0.992110
v 9.000000 1.356303 0.992110
v 9.000000 0.628412 -5.025521
v 8.711528 0.628412 -5.025521
v 9.000000 0.863429 -5.025521
v 9.000000 1.876732 0.509850
v 8.711528 1.876732 0.509850
v 8.711528 0.863429 -5.025521
v 9.000000 1.413243 -5.025521
v 9.000000 2.701398 0.566387
v 8.711528 2.701398 0.566387
v 8.711528 1.413243 -5.025521
v 9.000000 1.678295 -5.025521
v 9.000000 2.886480 0.649026
v 8.711528 2.886480 0.649026
v 8.711528 1.678295 -5.025521
v 9.000000 4.014255 -5.025521
v 9.000000 4.172229 0.595366
v 8.711528 4.172229 0.595366
v 8.711528 4.014255 -5.025521
v 9.000000 4.140923 -5.025521
v 9.000000 4.442763 0.761611
v 8.711528 4.442763 0.761611
v 8.711528 4.140923 -5.025521
v 8.711528 0.639217 0.984119
v 9.000000 0.639217 0.984119
v 9.000000 0.343596 -5.025521
v 8.711528 0.343596 -5.025521
v 9.000000 0.957694 -5.025521
v 9.000000 2.312128 0.491693
v 8.711528 2.312128 0.491693
v 8.711528 0.957694 -5.025521
vt 0.883932 0.100146
vt 0.883932 0.032458
vt 0.763234 0.032458
vt 0.763234 0.100146
vt 0.018306 0.919735
vt 0.774635 0.848479
vt 0.774635 0.956985
vt 0.015675 0.956985
vt 0.717001 0.100146
vt 0.774635 0.848479
vt 0.018307 0.919735
vt 0.717001 0.032458
vt 0.693447 0.032458
vt 0.015675 0.956985
vt 0.774635 0.956985
vt 0.693447 0.100146
vt 0.592297 0.032458
vt 0.086722 0.785742
vt 0.774635 0.785742
vt 0.592297 0.100146
vt 0.504647 0.032458
vt 0.774635 0.806917
vt 0.063630 0.830967
vt 0.504647 0.100146
vt 0.410954 0.100146
vt 0.774635 0.785742
vt 0.086722 0.785742
vt 0.410954 0.032458
vt 0.348566 0.032458
vt 0.063630 0.830967
vt 0.774635 0.806917
vt 0.348566 0.100146
vt 0.276535 0.100146
vt 0.089353 0.761315
vt 0.774635 0.694810
vt 0.276535 0.032458
vt 0.225554 0.032458
vt 0.774635 0.694810
vt 0.089353 0.761315
vt 0.225554 0.100146
vt 0.183428 0.100146
vt 0.036726 0.734772
vt 0.774635 0.616013
vt 0.183428 0.032458
vt 0.143629 0.032458
vt 0.774635 0.616013
vt 0.036726 0.734772
vt 0.143629 0.100146
vt 0.095397 0.032458
vt 0.069618 0.670463
vt 0.774635 0.475699
vt 0.095397 0.100146
vt 0.199391 0.100146
vt 0.774635 0.531784
vt 0.035410 0.704380
vt 0.199391 0.032458
vt 0.321420 0.100146
vt 0.774635 0.475699
vt 0.069618 0.670463
vt 0.321420 0.032458
vt 0.738452 0.100146
vt 0.035410 0.704380
vt 0.774635 0.531784
vt 0.738452 0.032458
vt 0.037211 0.032458
vt 0.056461 0.574128
vt 0.774635 0.365113
vt 0.037211 0.100146
vt 0.774635 0.410944
vt 0.067296 0.607050
vt 0.774635 0.365113
vt 0.056461 0.574128
vt 0.067296 0.607050
vt 0.774635 0.410944
vt 0.013445 0.402276
vt 0.774635 0.291463
vt 0.774635 0.327241
vt 0.074448 0.481505
vt 0.774635 0.291463
vt 0.013445 0.402276
vt 0.074448 0.481505
vt 0.774635 0.327241
vt 0.014456 0.293108
vt 0.774635 0.248103
vt 0.774635 0.248103
vt 0.014456 0.293108
vt 0.774635 0.341592
vt 0.076744 0.547788
vt 0.076744 0.547788
vt 0.774635 0.341592
vt 0.774635 0.451295
vt 0.056843 0.635227
vt 0.056843 0.635227
vt 0.774635 0.451295
vt 0.774635 0.826201
vt 0.042602 0.872152
vt 0.042602 0.872152
vt 0.774635 0.826201
vt 0.015675 0.195795
vt 0.774635 0.195795
vt 0.774635 0.195795
vt 0.015675 0.195795
vt 0.787131 0.465259
vt 0.868287 0.465259
vt 0.868287 0.582306
vt 0.787131 0.582306
vt 0.788183 0.898473
vt 0.869339 0.898473
vt 0.869339 0.967311
vt 0.788183 0.967311
vt 0.788183 0.810542
vt 0.869339 0.810542
vt 0.788183 0.734432
vt 0.869339 0.734432
vt 0.788183 0.650859
vt 0.869339 0.650859
vt 0.788183 0.605717
vt 0.869339 0.605717
vt 0.913524 0.682566
vt 0.992156 0.682566
vt 0.992156 0.741513
vt 0.913524 0.741513
vt 0.913524 0.635405
vt 0.992156 0.635405
vt 0.992156 0.791964
vt 0.913524 0.791964
vt 0.913524 0.516723
vt 0.992156 0.516723
vt 0.992156 0.855054
vt 0.913524 0.855054
vt 0.913524 0.374864
vt 0.992156 0.374864
vt 0.992156 0.915784
vt 0.913524 0.915784
vt 0.913524 0.179398
vt 0.992156 0.179398
vt 0.992156 0.970200
vt 0.913524 0.970200
vt 0.913524 0.005158
vt 0.992156 0.005158
vn 0.000000 -0.356855 0.934160
vn 0.000000 -0.356855 0.934160
vn 0.000000 -0.084711 0.996406
vn 0.000000 -0.084711 0.996406
vn 0.000000 0.000000 -1.000000
vn 0.000000 0.000000 -1.000000
vn 0.000000 0.000000 -1.000000
vn 0.000000 0.000000 -1.000000
vn 1.000000 0.000000 0.000000
vn 1.000000 -0.000000 0.000000
vn 1.000000 0.000000 0.000000
vn 1.000000 0.000000 0.000000
vn -1.000000 0.000000 0.000000
vn -1.000000 0.000000 0.000000
vn -1.000000 0.000000 0.000000
vn -1.000000 0.000000 0.000000
vn 0.000000 -0.406152 0.913806
vn 0.000000 -0.406152 0.913806
vn 0.000000 -0.523555 0.851992
vn 0.000000 -0.523555 0.851992
vn 1.000000 0.000000 0.000000
vn 1.000000 -0.000000 0.000000
vn 1.000000 0.000000 0.000000
vn 1.000000 0.000000 0.000000
vn 0.000000 0.000000 -1.000000
vn 0.000000 0.000000 -1.000000
vn 0.000000 0.000000 -1.000000
vn 0.000000 0.000000 -1.000000
vn -1.000000 0.000000 0.000000
vn -1.000000 -0.000000 0.000000
vn -1.000000 -0.000000 0.000000
vn -1.000000 -0.000000 0.000000
vn 0.000000 0.763035 0.646357
vn 0.000000 0.763035 0.646357
vn 1.000000 -0.000000 0.000000
vn 1.000000 -0.000000 0.000000
vn 0.000000 0.000000 -1.000000
vn 0.000000 0.000000 -1.000000
vn -1.000000 0.000000 0.000000
vn -1.000000 0.000000 0.000000
vn 0.000000 0.751840 0.659345
vn 0.000000 0.751840 0.659345
vn 1.000000 0.000000 0.000000
vn 1.000000 0.000000 0.000000
vn 0.000000 0.000000 -1.000000
vn 0.000000 0.000000 -1.000000
vn -1.000000 -0.000000 0.000000
vn -1.000000 -0.000000 0.000000
vn 0.000000 -0.349484 0.936942
vn 0.000000 -0.349484 0.936942
vn 0.000000 -0.524207 0.851591
vn 0.000000 -0.524207 0.851591
vn 1.000000 -0.000000 0.000000
vn 1.000000 -0.000000 0.000000
vn 1.000000 0.000000 0.000000
vn 1.000000 0.000000 0.000000
vn 0.000000 0.000000 -1.000000
vn 0.000000 0.000000 -1.000000
vn 0.000000 0.000000 -1.000000
vn 0.000000 0.000000 -1.000000
vn -1.000000 0.000000 0.000000
vn -1.000000 0.000000 0.000000
vn -1.000000 -0.000000 0.000000
vn -1.000000 0.000000 0.000000
vn 0.000000 -0.188446 0.982083
vn 0.000000 -0.188446 0.982083
vn 0.000000 0.007519 0.999972
vn 0.000000 0.007519 0.999972
vn 1.000000 0.000000 0.000000
vn 1.000000 0.000000 0.000000
vn 1.000000 0.000000 0.000000
vn 1.000000 0.000000 0.000000
vn 0.000000 0.000000 -1.000000
vn 0.000000 0.000000 -1.000000
vn 0.000000 0.000000 -1.000000
vn 0.000000 0.000000 -1.000000
vn -1.000000 -0.000000 0.000000
vn -1.000000 -0.000000 0.000000
vn -1.000000 -0.000000 0.000000
vn -1.000000 -0.000000 0.000000
vn 0.000000 0.357862 0.933774
vn 0.000000 0.357862 0.933774
vn 0.000000 0.463823 0.885928
vn 0.000000 0.463823 0.885928
vn 1.000000 -0.000000 0.000000
vn 1.000000 -0.000000 0.000000
vn 1.000000 -0.000000 0.000000
vn 1.000000 -0.000000 0.000000
vn 0.000000 0.000000 -1.000000
vn 0.000000 0.000000 -1.000000
vn 0.000000 0.000000 -1.000000
vn 0.000000 0.000000 -1.000000
vn -1.000000 0.000000 0.000000
vn -1.000000 0.000000 0.000000
vn -1.000000 0.000000 0.000000
vn -1.000000 0.000000 0.000000
vn 0.000000 -0.012998 0.999916
vn 0.000000 -0.012998 0.999916
vn 1.000000 0.000000 0.000000
vn 1.000000 0.000000 0.000000
vn 0.000000 0.000000 -1.000000
vn 0.000000 0.000000 -1.000000
vn -1.000000 0.000000 0.000000
vn -1.000000 0.000000 0.000000
vn 1.000000 -0.000000 0.000000
vn 1.000000 -0.000000 0.000000
vn 0.000000 -0.227581 0.973759
vn 0.000000 -0.227581 0.973759
vn -1.000000 0.000000 0.000000
vn -1.000000 0.000000 0.000000
vn 0.000000 0.000000 -1.000000
vn 0.000000 0.000000 -1.000000
vn 1.000000 -0.000000 0.000000
vn 1.000000 -0.000000 0.000000
vn 0.000000 0.044022 0.999031
vn 0.000000 0.044022 0.999031
vn -1.000000 0.000000 0.000000
vn -1.000000 0.000000 0.000000
vn 0.000000 0.000000 -1.000000
vn 0.000000 0.000000 -1.000000
vn 1.000000 -0.000000 0.000000
vn 1.000000 -0.000000 0.000000
vn 0.000000 -0.523555 0.851992
vn 0.000000 -0.523555 0.851992
vn -1.000000 0.000000 0.000000
vn -1.000000 0.000000 0.000000
vn 0.000000 0.000000 -1.000000
vn 0.000000 0.000000 -1.000000
vn 0.000000 -0.015079 0.999886
vn 0.000000 -0.015079 0.999886
vn 1.000000 0.000000 0.000000
vn 1.000000 0.000000 0.000000
vn 0.000000 0.000000 -1.000000
vn 0.000000 0.000000 -1.000000
vn -1.000000 0.000000 0.000000
vn -1.000000 0.000000 0.000000
s 1
g wall_Broken
usemtl initialShadingGroup
f 9/107/1 10/108/2 4/109/3 3/110/4
s 2
f 5/1/5 6/2/6 11/3/7 12/4/8
s 3
f 10/5/9 11/6/10 6/7/11 4/8/12
s 4
f 12/10/13 9/11/14 3/14/15 5/15/16
s 1
f 13/115/17 14/116/18 54/114/19 55/113/20
s 3
f 14/18/21 15/19/22 53/22/23 54/23/24
s 2
f 56/9/25 53/12/26 15/13/27 16/16/28
s 4
f 16/26/29 13/27/30 55/30/31 56/31/32
s 1
f 17/117/33 18/118/34 14/116/18 13/115/17
s 3
f 18/34/35 19/35/36 15/19/22 14/18/21
s 2
f 16/16/28 15/13/27 19/17/37 20/20/38
s 4
f 20/38/39 17/39/40 13/27/30 16/26/29
s 1
f 21/103/41 22/104/42 18/105/34 17/106/33
s 3
f 22/42/43 23/43/44 19/35/36 18/34/35
s 2
f 20/20/38 19/17/37 23/21/45 24/24/46
s 4
f 24/46/47 21/47/48 17/39/40 20/38/39
s 1
f 25/130/49 26/129/50 34/133/51 35/134/52
s 3
f 26/50/53 27/51/54 33/54/55 34/55/56
s 2
f 36/25/57 33/28/58 27/29/59 28/32/60
s 4
f 28/58/61 25/59/62 35/62/63 36/63/64
s 1
f 29/119/65 30/120/66 46/121/67 47/122/68
s 3
f 30/66/69 31/67/70 45/69/71 46/70/72
s 2
f 48/33/73 45/36/74 31/37/75 32/40/76
s 4
f 32/71/77 29/72/78 47/73/79 48/74/80
s 1
f 37/131/81 38/132/82 42/128/83 43/127/84
s 3
f 38/75/85 39/76/86 41/77/87 42/78/88
s 2
f 44/41/89 41/44/90 39/45/91 40/48/92
s 4
f 40/79/93 37/80/94 43/81/95 44/82/96
s 3
f 34/55/56 33/54/55 23/43/44 22/42/43
s 1
f 35/134/52 34/133/51 22/137/42 21/138/41
s 4
f 36/63/64 35/62/63 21/47/48 24/46/47
s 2
f 24/24/46 23/21/45 33/28/58 36/25/57
s 1
f 61/135/97 62/136/98 38/132/82 37/131/81
s 3
f 62/83/99 63/84/100 39/76/86 38/75/85
s 2
f 40/48/92 39/45/91 63/49/101 64/52/102
s 4
f 64/85/103 61/86/104 37/80/94 40/79/93
s 3
f 42/78/88 41/77/87 65/87/105 66/88/106
s 1
f 43/127/84 42/128/83 66/124/107 67/123/108
s 4
f 44/82/96 43/81/95 67/89/109 68/90/110
s 2
f 68/53/111 65/56/112 41/44/90 44/41/89
s 3
f 46/70/72 45/69/71 49/91/113 50/92/114
s 1
f 47/122/68 46/121/67 50/125/115 51/126/116
s 4
f 48/74/80 47/73/79 51/93/117 52/94/118
s 2
f 52/57/119 49/60/120 45/36/74 48/33/73
s 3
f 50/92/114 49/91/113 27/51/54 26/50/53
s 1
f 51/126/116 50/125/115 26/129/50 25/130/49
s 4
f 52/94/118 51/93/117 25/59/62 28/58/61
s 2
f 28/32/60 27/29/59 49/60/120 52/57/119
s 3
f 54/23/24 53/22/23 57/95/121 58/96/122
s 1
f 55/113/20 54/114/19 58/112/123 59/111/124
s 4
f 56/31/32 55/30/31 59/97/125 60/98/126
s 2
f 60/61/127 57/64/128 53/12/26 56/9/25
s 3
f 58/96/122 57/95/121 11/6/10 10/5/9
s 1
f 59/111/124 58/112/123 10/108/2 9/107/1
s 4
f 60/98/126 59/97/125 9/11/14 12/10/13
s 2
f 12/4/8 11/3/7 57/64/128 60/61/127
s 1
f 1/139/129 2/140/130 62/136/98 61/135/97
s 3
f 2/99/131 8/100/132 63/84/100 62/83/99
s 2
f 64/52/102 63/49/101 8/65/133 7/68/134
s 4
f 7/101/135 1/102/136 61/86/104 64/85/103
s 3
f 66/88/106 65/87/105 31/67/70 30/66/69
s 1
f 67/123/108 66/124/107 30/120/66 29/119/65
s 4
f 68/90/110 67/89/109 29/72/78 32/71/77
s 2
f 32/40/76 31/37/75 65/56/112 68/53/111
