# This file uses centimeters as units for non-parametric coordinates.

mtllib Palace_Turn_1.mtl
g default
v 129.901485 1.577496 15.780556
v 133.971111 1.577496 18.881641
v 138.289958 1.577496 21.621902
v 142.829677 1.577496 23.981964
v 147.556163 1.577496 25.943253
v 152.430629 1.577496 27.491898
v 157.420024 1.577496 28.617111
v 162.488735 1.577496 29.309479
v 167.597637 1.577496 29.564606
v 172.713085 1.577496 29.379761
v 177.797161 1.577496 28.754761
v 182.802913 1.577496 27.698410
v 185.173046 1.577496 26.815536
v 137.928386 1.422588 6.861763
v 141.202144 1.422588 9.306252
v 144.674663 1.422588 11.462597
v 148.318111 1.422588 13.311775
v 152.106792 1.422588 14.840652
v 156.014537 1.422588 16.040630
v 160.009120 1.422588 16.900772
v 164.060970 1.422588 17.413937
v 168.144252 1.422588 17.578064
v 172.227733 1.422588 17.390579
v 176.281246 1.422588 16.851906
v 180.274898 1.422588 15.968739
v 181.893123 1.422588 15.345261
v 137.937023 2.422504 6.852169
v 141.209926 2.422504 9.295952
v 144.681530 2.422504 11.451668
v 148.324016 2.422504 13.300297
v 152.111675 2.422504 14.828709
v 156.018367 2.422504 16.028313
v 160.011882 2.422504 16.888172
v 164.062648 2.422504 17.401142
v 168.144832 2.422504 17.565170
v 172.227214 2.422504 17.377686
v 176.279598 2.422504 16.839108
v 180.272167 2.422504 15.956127
v 181.889598 2.422504 15.332928
v 129.910091 2.577413 15.770954
v 133.978878 2.577413 18.871338
v 138.296810 2.577413 21.610970
v 142.835552 2.577413 23.970490
v 147.561031 2.577413 25.931320
v 152.434459 2.577413 27.479591
v 157.422771 2.577413 28.604515
v 162.490383 2.577413 29.296692
v 167.598186 2.577413 29.551727
v 172.712520 2.577413 29.366882
v 177.795482 2.577413 28.741974
v 182.800151 2.577413 27.685814
v 185.169490 2.577413 26.803230
v 126.113414 1.577496 12.341419
v 134.876827 1.422588 4.145168
v 134.886257 2.422504 4.136353
v 126.122814 2.577413 12.332596
vt 0.226566 0.102477
vt 0.934330 0.098051
vt 0.935091 0.126622
vt 0.227326 0.131048
vt 0.027874 0.808256
vt 0.170388 0.961860
vt 0.220014 0.910949
vt 0.089477 0.743804
vt 0.273254 0.865137
vt 0.155659 0.685687
vt 0.329725 0.824726
vt 0.225894 0.634333
vt 0.388977 0.790071
vt 0.299721 0.590104
vt 0.450590 0.761419
vt 0.376586 0.553348
vt 0.514140 0.738930
vt 0.455856 0.524325
vt 0.579101 0.722811
vt 0.536996 0.503238
vt 0.644994 0.713193
vt 0.619426 0.490262
vt 0.711399 0.710118
vt 0.702510 0.485481
vt 0.777806 0.713631
vt 0.785699 0.488945
vt 0.843726 0.723726
vt 0.868379 0.500658
vt 0.908673 0.740278
vt 0.949785 0.520455
vt 0.934989 0.751962
vt 0.988329 0.537001
vt 0.025463 0.245991
vt 0.025656 0.279623
vt 0.087887 0.279623
vt 0.087711 0.245991
vt 0.154649 0.279623
vt 0.154490 0.245991
vt 0.225464 0.279623
vt 0.225324 0.245991
vt 0.299765 0.279623
vt 0.299645 0.245991
vt 0.377028 0.279623
vt 0.376928 0.245991
vt 0.456718 0.279623
vt 0.456640 0.245991
vt 0.538180 0.279623
vt 0.538123 0.245991
vt 0.620809 0.279623
vt 0.620775 0.245991
vt 0.704079 0.279623
vt 0.704067 0.245991
vt 0.787353 0.279623
vt 0.787364 0.245991
vt 0.870016 0.279623
vt 0.870049 0.245991
vt 0.951458 0.279623
vt 0.951513 0.245991
vt 0.984451 0.279623
vt 0.984523 0.245991
vt 0.170542 0.962025
vt 0.028026 0.808421
vt 0.089617 0.743984
vt 0.220155 0.911129
vt 0.155785 0.685881
vt 0.273380 0.865331
vt 0.226006 0.634538
vt 0.329837 0.824931
vt 0.299817 0.590319
vt 0.389073 0.790286
vt 0.376665 0.553571
vt 0.450669 0.761643
vt 0.455919 0.524556
vt 0.514202 0.739161
vt 0.537041 0.503474
vt 0.579146 0.723047
vt 0.619453 0.490502
vt 0.645022 0.713433
vt 0.702518 0.485722
vt 0.711408 0.710359
vt 0.785690 0.489186
vt 0.777798 0.713873
vt 0.868351 0.500898
vt 0.843699 0.723966
vt 0.949740 0.520691
vt 0.908628 0.740514
vt 0.988271 0.537231
vt 0.934932 0.752193
vt 0.014658 0.394922
vt 0.014508 0.368618
vt 0.074941 0.368618
vt 0.075078 0.394922
vt 0.139866 0.368618
vt 0.139990 0.394922
vt 0.208767 0.368618
vt 0.208876 0.394922
vt 0.281191 0.368618
vt 0.281285 0.394922
vt 0.356595 0.368618
vt 0.356673 0.394922
vt 0.434360 0.368618
vt 0.434421 0.394922
vt 0.513958 0.368618
vt 0.514002 0.394922
vt 0.594822 0.368618
vt 0.594848 0.394922
vt 0.676327 0.368618
vt 0.676335 0.394922
vt 0.757936 0.368618
vt 0.757927 0.394922
vt 0.839045 0.368618
vt 0.839018 0.394922
vt 0.918904 0.368618
vt 0.918860 0.394922
vt 0.956716 0.368618
vt 0.956659 0.394922
vn 0.961465 0.000018 -0.274929
vn 0.961465 0.000018 -0.274929
vn 0.961465 0.000018 -0.274929
vn 0.961465 0.000018 -0.274929
vn -0.008652 -0.999916 0.009613
vn -0.008652 -0.999916 0.009613
vn -0.008210 -0.999917 0.009977
vn -0.008234 -0.999917 0.009958
vn -0.007324 -0.999917 0.010645
vn -0.007349 -0.999917 0.010627
vn -0.006384 -0.999917 0.011233
vn -0.006411 -0.999916 0.011218
vn -0.005395 -0.999917 0.011741
vn -0.005423 -0.999917 0.011728
vn -0.004368 -0.999917 0.012160
vn -0.004397 -0.999917 0.012150
vn -0.003311 -0.999917 0.012489
vn -0.003340 -0.999917 0.012482
vn -0.002226 -0.999917 0.012728
vn -0.002257 -0.999917 0.012722
vn -0.001125 -0.999917 0.012872
vn -0.001156 -0.999917 0.012869
vn -0.000016 -0.999917 0.012921
vn -0.000047 -0.999917 0.012921
vn 0.001095 -0.999917 0.012874
vn 0.001064 -0.999917 0.012877
vn 0.002195 -0.999917 0.012733
vn 0.002165 -0.999917 0.012738
vn 0.003358 -0.999916 0.012494
vn 0.003280 -0.999916 0.012512
vn 0.004608 -0.999915 0.012200
vn 0.004608 -0.999915 0.012200
vn 0.664864 -0.012883 -0.746854
vn 0.664864 -0.012883 -0.746854
vn 0.632126 -0.012895 -0.774758
vn 0.632153 -0.012895 -0.774737
vn 0.563362 -0.012895 -0.826109
vn 0.563391 -0.012895 -0.826090
vn 0.490460 -0.012893 -0.871369
vn 0.490489 -0.012893 -0.871352
vn 0.413728 -0.012891 -0.910309
vn 0.413760 -0.012891 -0.910295
vn 0.334128 -0.012890 -0.942439
vn 0.334160 -0.012890 -0.942428
vn 0.252224 -0.012886 -0.967583
vn 0.252255 -0.012886 -0.967575
vn 0.168203 -0.012886 -0.985668
vn 0.168236 -0.012886 -0.985663
vn 0.082938 -0.012889 -0.996471
vn 0.082971 -0.012889 -0.996469
vn -0.002883 -0.012891 -0.999913
vn -0.002849 -0.012891 -0.999913
vn -0.088904 -0.012889 -0.995957
vn -0.088870 -0.012889 -0.995960
vn -0.174002 -0.012889 -0.984661
vn -0.173969 -0.012889 -0.984667
vn -0.259313 -0.012874 -0.965707
vn -0.259235 -0.012874 -0.965729
vn -0.359501 -0.012761 -0.933057
vn -0.359501 -0.012761 -0.933057
vn 0.008652 0.999916 -0.009613
vn 0.008652 0.999916 -0.009613
vn 0.008234 0.999917 -0.009958
vn 0.008210 0.999917 -0.009977
vn 0.007349 0.999917 -0.010627
vn 0.007324 0.999917 -0.010645
vn 0.006411 0.999917 -0.011218
vn 0.006384 0.999917 -0.011234
vn 0.005423 0.999917 -0.011728
vn 0.005395 0.999917 -0.011741
vn 0.004397 0.999917 -0.012150
vn 0.004368 0.999917 -0.012160
vn 0.003340 0.999917 -0.012482
vn 0.003311 0.999916 -0.012490
vn 0.002256 0.999917 -0.012722
vn 0.002226 0.999917 -0.012728
vn 0.001156 0.999917 -0.012869
vn 0.001125 0.999917 -0.012872
vn 0.000047 0.999917 -0.012921
vn 0.000016 0.999917 -0.012921
vn -0.001065 0.999917 -0.012877
vn -0.001095 0.999917 -0.012874
vn -0.002165 0.999917 -0.012738
vn -0.002196 0.999916 -0.012733
vn -0.003280 0.999916 -0.012512
vn -0.003358 0.999916 -0.012494
vn -0.004608 0.999915 -0.012200
vn -0.004608 0.999915 -0.012200
vn -0.672125 0.012873 0.740325
vn -0.672125 0.012873 0.740325
vn -0.639684 0.012885 0.768530
vn -0.639664 0.012885 0.768547
vn -0.571412 0.012888 0.820562
vn -0.571391 0.012888 0.820577
vn -0.498927 0.012890 0.866548
vn -0.498904 0.012890 0.866562
vn -0.422628 0.012884 0.906212
vn -0.422604 0.012884 0.906223
vn -0.343336 0.012879 0.939124
vn -0.343312 0.012879 0.939133
vn -0.261621 0.012880 0.965085
vn -0.261595 0.012880 0.965092
vn -0.177822 0.012883 0.983978
vn -0.177797 0.012883 0.983983
vn -0.092696 0.012884 0.995611
vn -0.092671 0.012884 0.995613
vn -0.006882 0.012883 0.999893
vn -0.006857 0.012883 0.999894
vn 0.079136 0.012884 0.996781
vn 0.079161 0.012884 0.996779
vn 0.164350 0.012888 0.986318
vn 0.164374 0.012888 0.986314
vn 0.254218 0.012872 0.967061
vn 0.254287 0.012872 0.967043
vn 0.349041 0.012768 0.937021
vn 0.349041 0.012768 0.937021
s off
g polySurface13 polySurface2
usemtl initialShadingGroup
f 13/1/1 26/2/2 39/3/3 52/4/4
s 1
f 53/5/5 54/6/6 14/7/7 1/8/8
f 1/8/8 14/7/7 15/9/9 2/10/10
f 2/10/10 15/9/9 16/11/11 3/12/12
f 3/12/12 16/11/11 17/13/13 4/14/14
f 4/14/14 17/13/13 18/15/15 5/16/16
f 5/16/16 18/15/15 19/17/17 6/18/18
f 6/18/18 19/17/17 20/19/19 7/20/20
f 7/20/20 20/19/19 21/21/21 8/22/22
f 8/22/22 21/21/21 22/23/23 9/24/24
f 9/24/24 22/23/23 23/25/25 10/26/26
f 10/26/26 23/25/25 24/27/27 11/28/28
f 11/28/28 24/27/27 25/29/29 12/30/30
f 12/30/30 25/29/29 26/31/31 13/32/32
s 2
f 54/33/33 55/34/34 27/35/35 14/36/36
f 14/36/36 27/35/35 28/37/37 15/38/38
f 15/38/38 28/37/37 29/39/39 16/40/40
f 16/40/40 29/39/39 30/41/41 17/42/42
f 17/42/42 30/41/41 31/43/43 18/44/44
f 18/44/44 31/43/43 32/45/45 19/46/46
f 19/46/46 32/45/45 33/47/47 20/48/48
f 20/48/48 33/47/47 34/49/49 21/50/50
f 21/50/50 34/49/49 35/51/51 22/52/52
f 22/52/52 35/51/51 36/53/53 23/54/54
f 23/54/54 36/53/53 37/55/55 24/56/56
f 24/56/56 37/55/55 38/57/57 25/58/58
f 25/58/58 38/57/57 39/59/59 26/60/60
s 3
f 55/61/61 56/62/62 40/63/63 27/64/64
f 27/64/64 40/63/63 41/65/65 28/66/66
f 28/66/66 41/65/65 42/67/67 29/68/68
f 29/68/68 42/67/67 43/69/69 30/70/70
f 30/70/70 43/69/69 44/71/71 31/72/72
f 31/72/72 44/71/71 45/73/73 32/74/74
f 32/74/74 45/73/73 46/75/75 33/76/76
f 33/76/76 46/75/75 47/77/77 34/78/78
f 34/78/78 47/77/77 48/79/79 35/80/80
f 35/80/80 48/79/79 49/81/81 36/82/82
f 36/82/82 49/81/81 50/83/83 37/84/84
f 37/84/84 50/83/83 51/85/85 38/86/86
f 38/86/86 51/85/85 52/87/87 39/88/88
s 4
f 56/89/89 53/90/90 1/91/91 40/92/92
f 40/92/92 1/91/91 2/93/93 41/94/94
f 41/94/94 2/93/93 3/95/95 42/96/96
f 42/96/96 3/95/95 4/97/97 43/98/98
f 43/98/98 4/97/97 5/99/99 44/100/100
f 44/100/100 5/99/99 6/101/101 45/102/102
f 45/102/102 6/101/101 7/103/103 46/104/104
f 46/104/104 7/103/103 8/105/105 47/106/106
f 47/106/106 8/105/105 9/107/107 48/108/108
f 48/108/108 9/107/107 10/109/109 49/110/110
f 49/110/110 10/109/109 11/111/111 50/112/112
f 50/112/112 11/111/111 12/113/113 51/114/114
f 51/114/114 12/113/113 13/115/115 52/116/116
