# This file uses centimeters as units for non-parametric coordinates.

mtllib wall_doorway.mtl
g default
v 8.711528 0.000000 -14.150431
v 9.000000 0.000000 -14.150431
v 8.711528 5.000000 -14.150431
v 9.000000 5.000000 -14.150431
v 8.711528 5.000000 -20.150431
v 9.000000 5.000000 -20.150431
v 8.711528 0.000000 -20.150431
v 9.000000 0.000000 -20.150431
v 8.711528 5.000000 -18.016219
v 9.000000 5.000000 -18.016219
v 9.000000 0.000000 -18.016219
v 8.711528 0.000000 -18.016219
v 8.711528 5.000000 -15.988567
v 9.000000 5.000000 -15.988567
v 9.000000 0.000000 -15.988567
v 8.711528 0.000000 -15.988567
v 8.711528 2.560140 -14.150431
v 9.000000 2.560140 -14.150431
v 9.000000 2.560140 -15.988567
v 9.000000 2.560140 -18.016219
v 9.000000 2.560140 -20.150431
v 8.711528 2.560140 -20.150431
v 8.711528 2.560140 -18.016219
v 8.711528 2.560140 -15.988567
vt 0.946809 0.458936
vt 0.994510 0.458936
vt 0.994510 0.892363
vt 0.946809 0.892363
vt 0.946809 0.892363
vt 0.994510 0.892363
vt 0.994510 0.458936
vt 0.946809 0.458936
vt 0.554055 0.990452
vt 0.554055 0.574326
vt 0.875979 0.075133
vt 0.875979 0.639021
vt 0.857386 0.574326
vt 0.857386 0.990452
vt 0.927345 0.639021
vt 0.927345 0.075133
vt 0.946809 0.004142
vt 0.994510 0.004142
vt 0.780383 0.024167
vt 0.165405 0.024167
vt 0.994510 0.004142
vt 0.946809 0.004142
vt 0.165405 0.098584
vt 0.780383 0.098584
vt 0.857386 0.574326
vt 0.554055 0.574326
vt 0.554055 0.990452
vt 0.857386 0.990452
vt 0.265870 0.990452
vt 0.265870 0.574326
vt 0.265870 0.574326
vt 0.265870 0.990452
vt 0.004620 0.574326
vt 0.004620 0.990452
vt 0.004620 0.574326
vt 0.004620 0.990452
vt 0.004620 0.137686
vt 0.265870 0.137686
vt 0.554055 0.137686
vt 0.857386 0.137686
vt 0.857386 0.137686
vt 0.554055 0.137686
vt 0.265870 0.137686
vt 0.004620 0.137686
vt 0.875979 0.639021
vt 0.875979 0.075133
vt 0.927345 0.075133
vt 0.927345 0.639021
vn 0.000000 0.000000 1.000000
vn 0.000000 0.000000 1.000000
vn 0.000000 0.000000 1.000000
vn 0.000000 0.000000 1.000000
vn 0.000000 0.000000 -1.000000
vn 0.000000 0.000000 -1.000000
vn 0.000000 0.000000 -1.000000
vn 0.000000 0.000000 -1.000000
vn 1.000000 0.000000 0.000000
vn 1.000000 0.000000 0.000000
vn 1.000000 0.000000 0.000000
vn 1.000000 0.000000 0.000000
vn -1.000000 0.000000 0.000000
vn -1.000000 0.000000 0.000000
vn -1.000000 0.000000 0.000000
vn -1.000000 0.000000 0.000000
vn 1.000000 0.000000 0.000000
vn 1.000000 0.000000 0.000000
vn -1.000000 0.000000 0.000000
vn -1.000000 0.000000 0.000000
vn 1.000000 0.000000 0.000000
vn 1.000000 0.000000 0.000000
vn -1.000000 0.000000 0.000000
vn -1.000000 0.000000 0.000000
vn 0.000000 0.000000 1.000000
vn 0.000000 0.000000 1.000000
vn 1.000000 0.000000 0.000000
vn 1.000000 0.000000 0.000000
vn 1.000000 0.000000 0.000000
vn 1.000000 0.000000 0.000000
vn 0.000000 0.000000 -1.000000
vn 0.000000 0.000000 -1.000000
vn -1.000000 0.000000 0.000000
vn -1.000000 0.000000 0.000000
vn -1.000000 0.000000 0.000000
vn -1.000000 0.000000 0.000000
vn 0.000000 0.000000 -1.000000
vn 0.000000 0.000000 -1.000000
vn 0.000000 0.000000 -1.000000
vn 0.000000 0.000000 -1.000000
vn -0.000000 0.000000 1.000000
vn -0.000000 0.000000 1.000000
vn -0.000000 0.000000 1.000000
vn -0.000000 0.000000 1.000000
vn 0.000001 -1.000000 0.000000
vn 0.000001 -1.000000 0.000000
vn 0.000001 -1.000000 0.000000
vn 0.000001 -1.000000 0.000000
s 1
g door_2_sided
usemtl initialShadingGroup
f 17/1/1 18/2/2 4/3/3 3/4/4
s 2
f 5/5/5 6/6/6 21/7/7 22/8/8
s 3
f 10/9/9 20/10/10 21/13/11 6/14/12
s 4
f 22/25/13 23/26/14 9/27/15 5/28/16
s 3
f 14/29/17 19/30/18 20/10/10 10/9/9
s 4
f 9/27/15 23/26/14 24/31/19 13/32/20
s 3
f 18/33/21 19/30/18 14/29/17 4/34/22
s 4
f 13/32/20 24/31/19 17/35/23 3/36/24
s 1
f 1/17/25 2/18/26 18/2/2 17/1/1
s 3
f 2/37/27 15/38/28 19/30/18 18/33/21
f 21/13/11 20/10/10 11/39/29 8/40/30
s 2
f 22/8/8 21/7/7 8/21/31 7/22/32
s 4
f 7/41/33 12/42/34 23/26/14 22/25/13
f 17/35/23 24/31/19 16/43/35 1/44/36
s off
f 16/11/37 24/12/38 19/15/39 15/16/40
f 23/45/41 12/46/42 11/47/43 20/48/44
f 20/19/45 19/20/46 24/23/47 23/24/48
